<svg width="60" height="59" viewBox="0 0 60 59" fill="none" xmlns="http://www.w3.org/2000/svg">
<path d="M26.1917 0.136042C20.9815 0.741546 15.9403 2.78336 11.561 6.07843C10.2514 7.06413 7.05491 10.1198 6.7592 10.6831C6.6043 10.9647 6.66063 10.9647 11.9975 10.9365L17.3907 10.8943L17.433 10.2888L17.4752 9.69737H13.5324C11.1667 9.69737 9.57549 9.64105 9.57549 9.57064C9.57549 9.16228 13.0536 6.38822 15.0391 5.20538L16.2501 4.48722H20.024H23.7978V3.85355V3.21989L21.5166 3.20581L19.2213 3.19172L19.7846 2.93826C20.5872 2.55806 22.6009 1.9948 24.2766 1.67092C25.9663 1.34705 28.7545 1.0795 28.9094 1.2344C28.9657 1.29072 28.9939 3.20581 28.9798 5.48701L28.9375 9.62697L25.741 9.66921L22.5305 9.69737V10.331V10.9647L26.3747 10.9365L30.2049 10.8943L30.2471 5.99394L30.2753 1.0795L30.9512 1.16399C31.3173 1.20623 32.0636 1.27664 32.5987 1.33297C34.1618 1.47378 36.6824 2.02296 38.4425 2.61438L40.0619 3.14948L37.7103 3.19172L35.3446 3.21989V3.85355V4.47314L39.2593 4.51538L43.1598 4.55763L44.5398 5.43068C45.3002 5.90945 46.4268 6.69802 47.0463 7.19087L48.1729 8.078L48.1306 8.85248L48.0884 9.62697L41.7235 9.66921L35.3446 9.69737V12.8657V16.034H28.9375H22.5305V22.4411V28.8482H19.3621H16.1938V29.4819V30.1155H23.2345H30.2753V26.3135V22.5115H29.6416H29.0079V25.6799V28.8482H26.4029H23.7978L23.826 23.103L23.8682 17.3718H29.5712H35.2742L35.3165 20.5683L35.3446 23.7789H35.9783H36.612L36.6401 17.3999L36.6824 11.0351L43.0613 10.9929L49.4261 10.9647V10.2606C49.4261 9.86635 49.4824 9.55656 49.5528 9.55656C49.9894 9.55656 53.0591 13.4149 54.0448 15.2032C54.425 15.9073 54.6363 16.4565 54.6363 16.7804C54.6363 17.1746 54.6926 17.2873 54.932 17.3295C55.1432 17.3577 55.3403 17.6393 55.6501 18.3575C56.2416 19.7375 57.0442 22.2299 56.9456 22.3848C56.9034 22.4552 56.3683 22.5115 55.7487 22.5115H54.6363V23.1452V23.7648L56.0022 23.807L57.3681 23.8493L57.5371 24.7646C57.6356 25.2715 57.7624 26.398 57.8187 27.257L57.9173 28.8482H53.6646H49.4261V22.4411V16.034H48.7924H48.1588V26.3135V36.593H48.7924H49.4261L49.4543 33.3824L49.4965 30.1859L53.6928 30.1437L57.875 30.1155V30.9323C57.875 32.8896 57.3258 35.8467 56.5091 38.2828L55.974 39.9022L55.9318 37.621L55.9036 35.3257H55.2699H54.6363L54.6081 38.4518L54.5659 41.5919L44.9623 41.6342L35.3446 41.6624V42.296V42.9297H45.6382H55.9177L56.5373 41.6201C59.2691 35.7763 59.8746 28.4258 58.1426 21.9483C55.0024 10.1198 44.9482 1.48786 32.7395 0.12196C31.2469 -0.0470178 27.6984 -0.0329363 26.1917 0.136042Z" fill="black"/>
<path d="M2.6614 17.2296C0.999786 20.7781 0 25.3687 0 29.4805C0 42.1679 8.18135 53.4894 20.221 57.4745C30.1344 60.7414 40.6814 58.6996 48.7501 51.9405C49.9893 50.9125 52.2423 48.6173 52.355 48.2793C52.3831 48.1807 48.3981 48.1385 41.3433 48.1385H30.2752V42.3651V36.5917L36.6541 36.5635L43.019 36.5213V26.3122V16.1031L42.4275 16.0608L41.822 16.0186L41.7939 22.3975L41.7516 28.7764L38.5551 28.8187L35.3445 28.8468V29.4805V30.1142L38.5551 30.1423L41.7516 30.1846V32.7192V35.2539L35.3868 35.2962L29.0079 35.3243V42.3651V49.4058H39.4L49.7781 49.4199L48.7924 50.3352C47.6095 51.4476 45.6663 52.9121 44.2018 53.8133C43.3428 54.3484 43.019 54.4752 42.4839 54.4752C41.9206 54.4752 41.8361 54.5174 41.7939 54.7849C41.7375 55.1792 40.7941 55.658 38.6537 56.3762C36.5274 57.0802 36.6119 57.1084 36.6119 55.6721V54.4752H32.8099H29.0079V55.1088V55.7425L32.148 55.7706L35.2741 55.8129L35.3164 56.5311L35.3586 57.2633L34.6827 57.4182C32.7254 57.8547 29.0642 57.9814 26.5014 57.6998C24.0512 57.4463 19.179 56.179 19.3761 55.8692C19.4184 55.7988 20.4322 55.7425 21.6292 55.7425H23.7977V48.7017V41.661H20.6294H17.461V39.1263V36.5917H20.6294H23.7977V35.958V35.3243H19.9957H16.1937L16.1656 38.4504L16.1233 41.5906L12.9268 41.6328L9.71623 41.661V42.2947V42.9283L16.0951 42.9565L22.46 42.9987L22.5022 48.7299L22.5304 54.4752H19.3198H16.1092L14.8982 53.757C14.2364 53.3627 13.0817 52.5742 12.3354 51.9827L10.9695 50.9407L11.0117 50.2085L11.054 49.4762L14.2223 49.4058L17.3906 49.3354L17.4329 48.7299L17.4751 48.1385H13.6027H9.71623V48.8426C9.71623 49.2228 9.6599 49.5466 9.58949 49.5466C9.42052 49.5466 7.9138 47.8287 6.8436 46.4065C5.44954 44.5477 4.73138 43.2663 4.64689 42.4496C4.59057 41.8581 4.52016 41.7314 4.25261 41.661C3.88649 41.5765 3.4218 40.619 2.67548 38.4082C1.99957 36.3804 1.54896 36.5917 6.6183 36.5917H10.9836V29.5509V22.5102H10.3499H9.71623L9.68807 28.875L9.64582 35.2539L5.81566 35.2962C2.18263 35.3243 1.97141 35.3102 1.84468 35.0568C1.57713 34.578 1.26733 31.5505 1.26733 29.5509C1.26733 27.833 1.54896 24.7491 1.77427 24.0169C1.84468 23.8057 1.98549 23.7775 2.57691 23.8057L3.30915 23.8479L3.35139 26.974L3.37956 30.1142H4.01322H4.64689V26.3122V22.5102H3.44997C2.2812 22.5102 2.25304 22.4961 2.25304 22.1722C2.25304 21.7498 3.11201 19.2573 3.63302 18.1731L4.01322 17.3704H10.0683H16.1233L16.1656 20.581L16.1937 23.7916L16.7992 23.7493L17.3906 23.7071V19.9051V16.1031L10.3077 16.0608L3.22466 16.0327L2.6614 17.2296Z" fill="black"/>
</svg>
