<svg width="328" height="61" viewBox="0 0 328 61" fill="none" xmlns="http://www.w3.org/2000/svg">
<path d="M86.1705 17.8182H89.9545L98.8523 39.5511H99.1591L108.057 17.8182H111.841V44H108.875V24.108H108.619L100.438 44H97.5739L89.392 24.108H89.1364V44H86.1705V17.8182ZM117.789 44V24.3636H120.806V44H117.789ZM119.323 21.0909C118.735 21.0909 118.228 20.8906 117.801 20.4901C117.384 20.0895 117.175 19.608 117.175 19.0455C117.175 18.483 117.384 18.0014 117.801 17.6009C118.228 17.2003 118.735 17 119.323 17C119.911 17 120.414 17.2003 120.831 17.6009C121.257 18.0014 121.471 18.483 121.471 19.0455C121.471 19.608 121.257 20.0895 120.831 20.4901C120.414 20.8906 119.911 21.0909 119.323 21.0909ZM126.332 44V24.3636H129.246V27.3295H129.451C129.809 26.358 130.457 25.5696 131.394 24.9645C132.332 24.3594 133.388 24.0568 134.565 24.0568C134.786 24.0568 135.063 24.0611 135.396 24.0696C135.728 24.0781 135.979 24.0909 136.15 24.108V27.1761C136.048 27.1506 135.813 27.1122 135.447 27.0611C135.089 27.0014 134.71 26.9716 134.309 26.9716C133.354 26.9716 132.502 27.1719 131.752 27.5724C131.011 27.9645 130.423 28.5099 129.988 29.2088C129.562 29.8991 129.349 30.6875 129.349 31.5739V44H126.332ZM145.505 44.4602C144.26 44.4602 143.131 44.2259 142.117 43.7571C141.103 43.2798 140.297 42.5938 139.701 41.6989C139.104 40.7955 138.806 39.7045 138.806 38.4261C138.806 37.3011 139.027 36.3892 139.471 35.6903C139.914 34.983 140.506 34.429 141.248 34.0284C141.989 33.6278 142.807 33.3295 143.702 33.1335C144.605 32.929 145.513 32.767 146.425 32.6477C147.618 32.4943 148.586 32.3793 149.327 32.3026C150.077 32.2173 150.623 32.0767 150.963 31.8807C151.313 31.6847 151.488 31.3437 151.488 30.858V30.7557C151.488 29.4943 151.142 28.5142 150.452 27.8153C149.77 27.1165 148.735 26.767 147.346 26.767C145.905 26.767 144.776 27.0824 143.958 27.7131C143.14 28.3437 142.564 29.017 142.232 29.733L139.368 28.7102C139.88 27.517 140.561 26.5881 141.414 25.9233C142.275 25.25 143.212 24.7812 144.226 24.517C145.249 24.2443 146.255 24.108 147.243 24.108C147.874 24.108 148.598 24.1847 149.417 24.3381C150.243 24.483 151.04 24.7855 151.807 25.2457C152.583 25.706 153.226 26.4006 153.738 27.3295C154.249 28.2585 154.505 29.5028 154.505 31.0625V44H151.488V41.3409H151.334C151.13 41.767 150.789 42.223 150.311 42.7088C149.834 43.1946 149.199 43.608 148.407 43.9489C147.614 44.2898 146.647 44.4602 145.505 44.4602ZM145.965 41.75C147.158 41.75 148.164 41.5156 148.982 41.0469C149.809 40.5781 150.431 39.973 150.848 39.2315C151.275 38.4901 151.488 37.7102 151.488 36.892V34.1307C151.36 34.2841 151.078 34.4247 150.644 34.5526C150.218 34.6719 149.723 34.7784 149.161 34.8722C148.607 34.9574 148.066 35.0341 147.537 35.1023C147.017 35.1619 146.596 35.2131 146.272 35.2557C145.488 35.358 144.755 35.5241 144.073 35.7543C143.4 35.9759 142.854 36.3125 142.436 36.7642C142.027 37.2074 141.823 37.8125 141.823 38.5795C141.823 39.6278 142.211 40.4205 142.986 40.9574C143.77 41.4858 144.763 41.75 145.965 41.75ZM170.545 17.8182H174.33L183.227 39.5511H183.534L192.432 17.8182H196.216V44H193.25V24.108H192.994L184.812 44H181.949L173.767 24.108H173.511V44H170.545V17.8182ZM207.942 44.4602C206.698 44.4602 205.569 44.2259 204.554 43.7571C203.54 43.2798 202.735 42.5938 202.138 41.6989C201.542 40.7955 201.243 39.7045 201.243 38.4261C201.243 37.3011 201.465 36.3892 201.908 35.6903C202.351 34.983 202.944 34.429 203.685 34.0284C204.426 33.6278 205.245 33.3295 206.14 33.1335C207.043 32.929 207.951 32.767 208.863 32.6477C210.056 32.4943 211.023 32.3793 211.765 32.3026C212.515 32.2173 213.06 32.0767 213.401 31.8807C213.75 31.6847 213.925 31.3437 213.925 30.858V30.7557C213.925 29.4943 213.58 28.5142 212.89 27.8153C212.208 27.1165 211.172 26.767 209.783 26.767C208.343 26.767 207.213 27.0824 206.395 27.7131C205.577 28.3437 205.002 29.017 204.669 29.733L201.806 28.7102C202.317 27.517 202.999 26.5881 203.851 25.9233C204.712 25.25 205.65 24.7812 206.664 24.517C207.686 24.2443 208.692 24.108 209.681 24.108C210.311 24.108 211.036 24.1847 211.854 24.3381C212.681 24.483 213.478 24.7855 214.245 25.2457C215.02 25.706 215.664 26.4006 216.175 27.3295C216.686 28.2585 216.942 29.5028 216.942 31.0625V44H213.925V41.3409H213.772C213.567 41.767 213.226 42.223 212.749 42.7088C212.272 43.1946 211.637 43.608 210.844 43.9489C210.051 44.2898 209.084 44.4602 207.942 44.4602ZM208.402 41.75C209.596 41.75 210.601 41.5156 211.419 41.0469C212.246 40.5781 212.868 39.973 213.286 39.2315C213.712 38.4901 213.925 37.7102 213.925 36.892V34.1307C213.797 34.2841 213.516 34.4247 213.081 34.5526C212.655 34.6719 212.161 34.7784 211.598 34.8722C211.044 34.9574 210.503 35.0341 209.975 35.1023C209.455 35.1619 209.033 35.2131 208.709 35.2557C207.925 35.358 207.192 35.5241 206.51 35.7543C205.837 35.9759 205.292 36.3125 204.874 36.7642C204.465 37.2074 204.26 37.8125 204.26 38.5795C204.26 39.6278 204.648 40.4205 205.424 40.9574C206.208 41.4858 207.201 41.75 208.402 41.75ZM230.426 44.4091C228.585 44.4091 227 43.9744 225.67 43.1051C224.341 42.2358 223.318 41.0384 222.602 39.5128C221.886 37.9872 221.528 36.2443 221.528 34.2841C221.528 32.2898 221.895 30.5298 222.628 29.0043C223.369 27.4702 224.401 26.2727 225.722 25.4119C227.051 24.5426 228.602 24.108 230.375 24.108C231.756 24.108 233 24.3636 234.108 24.875C235.216 25.3864 236.124 26.1023 236.831 27.0227C237.538 27.9432 237.977 29.017 238.148 30.2443H235.131C234.901 29.3494 234.389 28.5568 233.597 27.8665C232.813 27.1676 231.756 26.8182 230.426 26.8182C229.25 26.8182 228.219 27.125 227.332 27.7386C226.455 28.3437 225.768 29.2003 225.274 30.3082C224.788 31.4077 224.545 32.6989 224.545 34.1818C224.545 35.6989 224.784 37.0199 225.261 38.1449C225.747 39.2699 226.429 40.1435 227.307 40.7656C228.193 41.3878 229.233 41.6989 230.426 41.6989C231.21 41.6989 231.922 41.5625 232.561 41.2898C233.2 41.017 233.741 40.625 234.185 40.1136C234.628 39.6023 234.943 38.9886 235.131 38.2727H238.148C237.977 39.4318 237.555 40.4759 236.882 41.4048C236.217 42.3253 235.335 43.0582 234.236 43.6037C233.145 44.1406 231.875 44.4091 230.426 44.4091ZM250.791 44.4091C248.899 44.4091 247.267 43.9915 245.895 43.1562C244.531 42.3125 243.479 41.1364 242.737 39.6278C242.004 38.1108 241.638 36.3466 241.638 34.3352C241.638 32.3239 242.004 30.5511 242.737 29.017C243.479 27.4744 244.51 26.2727 245.831 25.4119C247.161 24.5426 248.712 24.108 250.484 24.108C251.507 24.108 252.517 24.2784 253.514 24.6193C254.511 24.9602 255.419 25.5142 256.237 26.2812C257.055 27.0398 257.707 28.0455 258.193 29.2983C258.679 30.5511 258.922 32.0937 258.922 33.9261V35.2045H243.786V32.5966H255.854C255.854 31.4886 255.632 30.5 255.189 29.6307C254.754 28.7614 254.132 28.0753 253.322 27.5724C252.521 27.0696 251.575 26.8182 250.484 26.8182C249.283 26.8182 248.243 27.1165 247.365 27.7131C246.496 28.3011 245.827 29.0682 245.358 30.0142C244.889 30.9602 244.655 31.9744 244.655 33.0568V34.7955C244.655 36.2784 244.911 37.5355 245.422 38.5668C245.942 39.5895 246.662 40.3693 247.582 40.9062C248.503 41.4347 249.572 41.6989 250.791 41.6989C251.584 41.6989 252.3 41.5881 252.939 41.3665C253.587 41.1364 254.145 40.7955 254.614 40.3438C255.082 39.8835 255.445 39.3125 255.7 38.6307L258.615 39.4489C258.308 40.4375 257.793 41.3068 257.068 42.0568C256.344 42.7983 255.449 43.3778 254.384 43.7955C253.318 44.2045 252.121 44.4091 250.791 44.4091ZM275.119 44H271.795L281.409 17.8182H284.682L294.295 44H290.972L283.148 21.9602H282.943L275.119 44ZM276.347 33.7727H289.744V36.5852H276.347V33.7727ZM298.374 44V17.8182H307.22C309.274 17.8182 310.953 18.1889 312.257 18.9304C313.57 19.6634 314.541 20.6562 315.172 21.9091C315.803 23.1619 316.118 24.5597 316.118 26.1023C316.118 27.6449 315.803 29.0469 315.172 30.3082C314.55 31.5696 313.587 32.5753 312.283 33.3253C310.979 34.0668 309.308 34.4375 307.271 34.4375H300.93V31.625H307.169C308.575 31.625 309.705 31.3821 310.557 30.8963C311.409 30.4105 312.027 29.7543 312.411 28.9276C312.803 28.0923 312.999 27.1506 312.999 26.1023C312.999 25.054 312.803 24.1165 312.411 23.2898C312.027 22.4631 311.405 21.8153 310.544 21.3466C309.683 20.8693 308.541 20.6307 307.118 20.6307H301.544V44H298.374ZM324.396 17.8182V44H321.225V17.8182H324.396Z" fill="white"/>
<path d="M26.993 0.139213C21.6234 0.763243 16.428 2.86753 11.9147 6.26342C10.565 7.27928 7.27071 10.4285 6.96595 11.0089C6.80631 11.2992 6.86436 11.2992 12.3645 11.2702L17.9228 11.2266L17.9663 10.6026L18.0098 9.99309H13.9464C11.5083 9.99309 9.86841 9.93504 9.86841 9.86247C9.86841 9.44162 13.453 6.58269 15.4992 5.36365L16.7473 4.62352H20.6366H24.5259V3.97047V3.31741L22.1749 3.3029L19.8094 3.28839L20.3899 3.02717C21.2171 2.63533 23.2923 2.05484 25.0193 1.72106C26.7608 1.38727 29.6342 1.11154 29.7938 1.27117C29.8519 1.32922 29.8809 3.3029 29.8664 5.6539L29.8229 9.92052L26.5286 9.96406L23.2198 9.99309V10.6461V11.2992L27.1816 11.2702L31.129 11.2266L31.1725 6.17634L31.2015 1.11154L31.8981 1.19861C32.2755 1.24215 33.0446 1.31471 33.5961 1.37276C35.2069 1.51788 37.8047 2.08387 39.6187 2.69338L41.2876 3.24485L38.8641 3.28839L36.426 3.31741V3.97047V4.60901L40.4604 4.65255L44.4803 4.69608L45.9025 5.59585C46.6862 6.08927 47.8472 6.90196 48.4857 7.40989L49.6467 8.32417L49.6032 9.12235L49.5596 9.92052L43.0001 9.96406L36.426 9.99309V13.2584V16.5236H29.8229H23.2198V23.1267V29.7299H19.9545H16.6892V30.3829V31.036H23.9454H31.2015V27.1176V23.1993H30.5485H29.8954V26.4646V29.7299H27.2107H24.5259L24.5549 23.8088L24.5984 17.9023H30.4759H36.3534L36.397 21.1966L36.426 24.5054H37.079H37.7321L37.7611 17.9313L37.8047 11.3718L44.3787 11.3282L50.9383 11.2992V10.5736C50.9383 10.1672 50.9964 9.84796 51.0689 9.84796C51.5188 9.84796 54.6825 13.8243 55.6984 15.6674C56.0902 16.393 56.3079 16.959 56.3079 17.2928C56.3079 17.6991 56.3659 17.8152 56.6126 17.8588C56.8303 17.8878 57.0335 18.178 57.3528 18.9182C57.9623 20.3404 58.7895 22.9091 58.6879 23.0687C58.6444 23.1413 58.0929 23.1993 57.4544 23.1993H56.3079V23.8524V24.4909L57.7156 24.5344L59.1233 24.578L59.2974 25.5213C59.399 26.0437 59.5296 27.2047 59.5877 28.09L59.6893 29.7299H55.3065H50.9383V23.1267V16.5236H50.2853H49.6322V27.1176V37.7116H50.2853H50.9383L50.9673 34.4028L51.0109 31.1085L55.3356 31.065L59.6457 31.036V31.8777C59.6457 33.8949 59.0797 36.9425 58.238 39.4531L57.6866 41.122L57.643 38.771L57.614 36.4055H56.9609H56.3079L56.2789 39.6273L56.2353 42.8635L46.3379 42.9071L36.426 42.9361V43.5891V44.2422H47.0345H57.6285L58.267 42.8925C61.0824 36.8699 61.7065 29.2945 59.9215 22.6188C56.6852 10.4285 46.3234 1.5324 33.7412 0.124701C32.2029 -0.0494474 28.5458 -0.0349351 26.993 0.139213Z" fill="white"/>
<path d="M2.74283 17.7563C1.03038 21.4134 0 26.1444 0 30.382C0 43.4576 8.43166 55.1255 20.8397 59.2325C31.0564 62.5994 41.9261 60.4951 50.2417 53.5292C51.5188 52.4698 53.8408 50.1043 53.9569 49.756C53.9859 49.6544 49.8789 49.6108 42.6082 49.6108H31.2015V43.6608V37.7107L37.7756 37.6817L44.3352 37.6382V27.1167V16.5953L43.7257 16.5518L43.1016 16.5082L43.0726 23.0823L43.0291 29.6564L39.7348 29.6999L36.426 29.729V30.382V31.0351L39.7348 31.0641L43.0291 31.1076V33.7198V36.3321L36.4695 36.3756L29.8954 36.4046V43.6608V50.917H40.6055L51.3011 50.9315L50.2852 51.8748C49.0662 53.0212 47.0635 54.5305 45.5542 55.4593C44.669 56.0108 44.3352 56.1414 43.7837 56.1414C43.2032 56.1414 43.1161 56.1849 43.0726 56.4607C43.0146 56.867 42.0422 57.3604 39.8364 58.1006C37.645 58.8262 37.7321 58.8552 37.7321 57.3749V56.1414H33.8137H29.8954V56.7945V57.4475L33.1317 57.4765L36.3534 57.5201L36.3969 58.2602L36.4405 59.0148L35.7439 59.1745C33.7267 59.6244 29.9535 59.755 27.3122 59.4647C24.7871 59.2035 19.7658 57.8974 19.969 57.5781C20.0125 57.5056 21.0574 57.4475 22.2909 57.4475H24.5258V50.1913V42.9352H21.2606H17.9953V40.323V37.7107H21.2606H24.5258V37.0577V36.4046H20.6075H16.6892L16.6602 39.6264L16.6166 42.8626L13.3223 42.9061L10.0135 42.9352V43.5882V44.2413L16.5876 44.2703L23.1472 44.3138L23.1907 50.2204L23.2197 56.1414H19.9109H16.6021L15.354 55.4013C14.672 54.9949 13.482 54.1822 12.7128 53.5727L11.3051 52.4988L11.3486 51.7442L11.3922 50.9895L14.6575 50.917L17.9227 50.8444L17.9663 50.2204L18.0098 49.6108H14.0189H10.0135V50.3365C10.0135 50.7283 9.95546 51.0621 9.8829 51.0621C9.70875 51.0621 8.15593 49.2916 7.05299 47.8258C5.61627 45.9102 4.87614 44.5896 4.78907 43.7479C4.73102 43.1383 4.65846 43.0077 4.38272 42.9352C4.0054 42.8481 3.5265 41.8613 2.75734 39.5828C2.06075 37.493 1.59636 37.7107 6.8208 37.7107H11.3196V30.4546V23.1984H10.6666H10.0135L9.98448 29.758L9.94095 36.3321L5.99359 36.3756C2.24941 36.4046 2.03173 36.3901 1.90112 36.1289C1.62538 35.6355 1.30611 32.5153 1.30611 30.4546C1.30611 28.6841 1.59636 25.5059 1.82855 24.7512C1.90112 24.5335 2.04624 24.5045 2.65576 24.5335L3.4104 24.5771L3.45394 27.7988L3.48296 31.0351H4.13601H4.78907V27.1167V23.1984H3.55552C2.351 23.1984 2.32197 23.1839 2.32197 22.8501C2.32197 22.4147 3.20723 19.8461 3.74418 18.7286L4.13601 17.9014H10.3763H16.6166L16.6602 21.2102L16.6892 24.519L17.3132 24.4755L17.9227 24.432V20.5136V16.5953L10.623 16.5518L3.32332 16.5227L2.74283 17.7563Z" fill="white"/>
</svg>
