<svg width="326" height="59" viewBox="0 0 326 59" fill="none" xmlns="http://www.w3.org/2000/svg">
<path d="M84.1705 15.8182H87.9545L96.8523 37.5511H97.1591L106.057 15.8182H109.841V42H106.875V22.108H106.619L98.4375 42H95.5739L87.392 22.108H87.1364V42H84.1705V15.8182ZM115.789 42V22.3636H118.806V42H115.789ZM117.323 19.0909C116.735 19.0909 116.228 18.8906 115.801 18.4901C115.384 18.0895 115.175 17.608 115.175 17.0455C115.175 16.483 115.384 16.0014 115.801 15.6009C116.228 15.2003 116.735 15 117.323 15C117.911 15 118.414 15.2003 118.831 15.6009C119.257 16.0014 119.471 16.483 119.471 17.0455C119.471 17.608 119.257 18.0895 118.831 18.4901C118.414 18.8906 117.911 19.0909 117.323 19.0909ZM124.332 42V22.3636H127.246V25.3295H127.451C127.809 24.358 128.457 23.5696 129.394 22.9645C130.332 22.3594 131.388 22.0568 132.565 22.0568C132.786 22.0568 133.063 22.0611 133.396 22.0696C133.728 22.0781 133.979 22.0909 134.15 22.108V25.1761C134.048 25.1506 133.813 25.1122 133.447 25.0611C133.089 25.0014 132.71 24.9716 132.309 24.9716C131.354 24.9716 130.502 25.1719 129.752 25.5724C129.011 25.9645 128.423 26.5099 127.988 27.2088C127.562 27.8991 127.349 28.6875 127.349 29.5739V42H124.332ZM143.505 42.4602C142.26 42.4602 141.131 42.2259 140.117 41.7571C139.103 41.2798 138.297 40.5938 137.701 39.6989C137.104 38.7955 136.806 37.7045 136.806 36.4261C136.806 35.3011 137.027 34.3892 137.471 33.6903C137.914 32.983 138.506 32.429 139.248 32.0284C139.989 31.6278 140.807 31.3295 141.702 31.1335C142.605 30.929 143.513 30.767 144.425 30.6477C145.618 30.4943 146.586 30.3793 147.327 30.3026C148.077 30.2173 148.623 30.0767 148.963 29.8807C149.313 29.6847 149.488 29.3437 149.488 28.858V28.7557C149.488 27.4943 149.142 26.5142 148.452 25.8153C147.77 25.1165 146.735 24.767 145.346 24.767C143.905 24.767 142.776 25.0824 141.958 25.7131C141.14 26.3437 140.564 27.017 140.232 27.733L137.368 26.7102C137.88 25.517 138.561 24.5881 139.414 23.9233C140.275 23.25 141.212 22.7812 142.226 22.517C143.249 22.2443 144.255 22.108 145.243 22.108C145.874 22.108 146.598 22.1847 147.417 22.3381C148.243 22.483 149.04 22.7855 149.807 23.2457C150.583 23.706 151.226 24.4006 151.738 25.3295C152.249 26.2585 152.505 27.5028 152.505 29.0625V42H149.488V39.3409H149.334C149.13 39.767 148.789 40.223 148.311 40.7088C147.834 41.1946 147.199 41.608 146.407 41.9489C145.614 42.2898 144.647 42.4602 143.505 42.4602ZM143.965 39.75C145.158 39.75 146.164 39.5156 146.982 39.0469C147.809 38.5781 148.431 37.973 148.848 37.2315C149.275 36.4901 149.488 35.7102 149.488 34.892V32.1307C149.36 32.2841 149.078 32.4247 148.644 32.5526C148.218 32.6719 147.723 32.7784 147.161 32.8722C146.607 32.9574 146.066 33.0341 145.537 33.1023C145.017 33.1619 144.596 33.2131 144.272 33.2557C143.488 33.358 142.755 33.5241 142.073 33.7543C141.4 33.9759 140.854 34.3125 140.436 34.7642C140.027 35.2074 139.823 35.8125 139.823 36.5795C139.823 37.6278 140.211 38.4205 140.986 38.9574C141.77 39.4858 142.763 39.75 143.965 39.75ZM168.545 15.8182H172.33L181.227 37.5511H181.534L190.432 15.8182H194.216V42H191.25V22.108H190.994L182.812 42H179.949L171.767 22.108H171.511V42H168.545V15.8182ZM205.942 42.4602C204.698 42.4602 203.569 42.2259 202.554 41.7571C201.54 41.2798 200.735 40.5938 200.138 39.6989C199.542 38.7955 199.243 37.7045 199.243 36.4261C199.243 35.3011 199.465 34.3892 199.908 33.6903C200.351 32.983 200.944 32.429 201.685 32.0284C202.426 31.6278 203.245 31.3295 204.14 31.1335C205.043 30.929 205.951 30.767 206.863 30.6477C208.056 30.4943 209.023 30.3793 209.765 30.3026C210.515 30.2173 211.06 30.0767 211.401 29.8807C211.75 29.6847 211.925 29.3437 211.925 28.858V28.7557C211.925 27.4943 211.58 26.5142 210.89 25.8153C210.208 25.1165 209.172 24.767 207.783 24.767C206.343 24.767 205.213 25.0824 204.395 25.7131C203.577 26.3437 203.002 27.017 202.669 27.733L199.806 26.7102C200.317 25.517 200.999 24.5881 201.851 23.9233C202.712 23.25 203.65 22.7812 204.664 22.517C205.686 22.2443 206.692 22.108 207.681 22.108C208.311 22.108 209.036 22.1847 209.854 22.3381C210.681 22.483 211.478 22.7855 212.245 23.2457C213.02 23.706 213.664 24.4006 214.175 25.3295C214.686 26.2585 214.942 27.5028 214.942 29.0625V42H211.925V39.3409H211.772C211.567 39.767 211.226 40.223 210.749 40.7088C210.272 41.1946 209.637 41.608 208.844 41.9489C208.051 42.2898 207.084 42.4602 205.942 42.4602ZM206.402 39.75C207.596 39.75 208.601 39.5156 209.419 39.0469C210.246 38.5781 210.868 37.973 211.286 37.2315C211.712 36.4901 211.925 35.7102 211.925 34.892V32.1307C211.797 32.2841 211.516 32.4247 211.081 32.5526C210.655 32.6719 210.161 32.7784 209.598 32.8722C209.044 32.9574 208.503 33.0341 207.975 33.1023C207.455 33.1619 207.033 33.2131 206.709 33.2557C205.925 33.358 205.192 33.5241 204.51 33.7543C203.837 33.9759 203.292 34.3125 202.874 34.7642C202.465 35.2074 202.26 35.8125 202.26 36.5795C202.26 37.6278 202.648 38.4205 203.424 38.9574C204.208 39.4858 205.201 39.75 206.402 39.75ZM228.426 42.4091C226.585 42.4091 225 41.9744 223.67 41.1051C222.341 40.2358 221.318 39.0384 220.602 37.5128C219.886 35.9872 219.528 34.2443 219.528 32.2841C219.528 30.2898 219.895 28.5298 220.628 27.0043C221.369 25.4702 222.401 24.2727 223.722 23.4119C225.051 22.5426 226.602 22.108 228.375 22.108C229.756 22.108 231 22.3636 232.108 22.875C233.216 23.3864 234.124 24.1023 234.831 25.0227C235.538 25.9432 235.977 27.017 236.148 28.2443H233.131C232.901 27.3494 232.389 26.5568 231.597 25.8665C230.813 25.1676 229.756 24.8182 228.426 24.8182C227.25 24.8182 226.219 25.125 225.332 25.7386C224.455 26.3437 223.768 27.2003 223.274 28.3082C222.788 29.4077 222.545 30.6989 222.545 32.1818C222.545 33.6989 222.784 35.0199 223.261 36.1449C223.747 37.2699 224.429 38.1435 225.307 38.7656C226.193 39.3878 227.233 39.6989 228.426 39.6989C229.21 39.6989 229.922 39.5625 230.561 39.2898C231.2 39.017 231.741 38.625 232.185 38.1136C232.628 37.6023 232.943 36.9886 233.131 36.2727H236.148C235.977 37.4318 235.555 38.4759 234.882 39.4048C234.217 40.3253 233.335 41.0582 232.236 41.6037C231.145 42.1406 229.875 42.4091 228.426 42.4091ZM248.791 42.4091C246.899 42.4091 245.267 41.9915 243.895 41.1562C242.531 40.3125 241.479 39.1364 240.737 37.6278C240.004 36.1108 239.638 34.3466 239.638 32.3352C239.638 30.3239 240.004 28.5511 240.737 27.017C241.479 25.4744 242.51 24.2727 243.831 23.4119C245.161 22.5426 246.712 22.108 248.484 22.108C249.507 22.108 250.517 22.2784 251.514 22.6193C252.511 22.9602 253.419 23.5142 254.237 24.2812C255.055 25.0398 255.707 26.0455 256.193 27.2983C256.679 28.5511 256.922 30.0937 256.922 31.9261V33.2045H241.786V30.5966H253.854C253.854 29.4886 253.632 28.5 253.189 27.6307C252.754 26.7614 252.132 26.0753 251.322 25.5724C250.521 25.0696 249.575 24.8182 248.484 24.8182C247.283 24.8182 246.243 25.1165 245.365 25.7131C244.496 26.3011 243.827 27.0682 243.358 28.0142C242.889 28.9602 242.655 29.9744 242.655 31.0568V32.7955C242.655 34.2784 242.911 35.5355 243.422 36.5668C243.942 37.5895 244.662 38.3693 245.582 38.9062C246.503 39.4347 247.572 39.6989 248.791 39.6989C249.584 39.6989 250.3 39.5881 250.939 39.3665C251.587 39.1364 252.145 38.7955 252.614 38.3438C253.082 37.8835 253.445 37.3125 253.7 36.6307L256.615 37.4489C256.308 38.4375 255.793 39.3068 255.068 40.0568C254.344 40.7983 253.449 41.3778 252.384 41.7955C251.318 42.2045 250.121 42.4091 248.791 42.4091ZM273.119 42H269.795L279.409 15.8182H282.682L292.295 42H288.972L281.148 19.9602H280.943L273.119 42ZM274.347 31.7727H287.744V34.5852H274.347V31.7727ZM296.374 42V15.8182H305.22C307.274 15.8182 308.953 16.1889 310.257 16.9304C311.57 17.6634 312.541 18.6562 313.172 19.9091C313.803 21.1619 314.118 22.5597 314.118 24.1023C314.118 25.6449 313.803 27.0469 313.172 28.3082C312.55 29.5696 311.587 30.5753 310.283 31.3253C308.979 32.0668 307.308 32.4375 305.271 32.4375H298.93V29.625H305.169C306.575 29.625 307.705 29.3821 308.557 28.8963C309.409 28.4105 310.027 27.7543 310.411 26.9276C310.803 26.0923 310.999 25.1506 310.999 24.1023C310.999 23.054 310.803 22.1165 310.411 21.2898C310.027 20.4631 309.405 19.8153 308.544 19.3466C307.683 18.8693 306.541 18.6307 305.118 18.6307H299.544V42H296.374ZM322.396 15.8182V42H319.225V15.8182H322.396Z" fill="black"/>
<path d="M26.1917 0.132135C20.9815 0.737639 15.9403 2.77946 11.561 6.07452C10.2514 7.06023 7.05491 10.1159 6.7592 10.6792C6.6043 10.9608 6.66063 10.9608 11.9975 10.9326L17.3907 10.8904L17.433 10.2849L17.4752 9.69347H13.5324C11.1667 9.69347 9.57549 9.63714 9.57549 9.56673C9.57549 9.15837 13.0536 6.38432 15.0391 5.20147L16.2501 4.48332H20.024H23.7978V3.84965V3.21598L21.5166 3.2019L19.2213 3.18782L19.7846 2.93435C20.5872 2.55415 22.6009 1.99089 24.2766 1.66702C25.9663 1.34314 28.7545 1.0756 28.9094 1.23049C28.9657 1.28682 28.9939 3.2019 28.9798 5.4831L28.9375 9.62306L25.741 9.6653L22.5305 9.69347V10.3271V10.9608L26.3747 10.9326L30.2049 10.8904L30.2471 5.99003L30.2753 1.0756L30.9512 1.16008C31.3173 1.20233 32.0636 1.27274 32.5987 1.32906C34.1618 1.46988 36.6824 2.01905 38.4425 2.61048L40.0619 3.14557L37.7103 3.18782L35.3446 3.21598V3.84965V4.46923L39.2593 4.51148L43.1598 4.55372L44.5398 5.42678C45.3002 5.90555 46.4268 6.69411 47.0463 7.18696L48.1729 8.0741L48.1306 8.84858L48.0884 9.62306L41.7235 9.6653L35.3446 9.69347V12.8618V16.0301H28.9375H22.5305V22.4372V28.8443H19.3621H16.1938V29.478V30.1116H23.2345H30.2753V26.3096V22.5076H29.6416H29.0079V25.676V28.8443H26.4029H23.7978L23.826 23.099L23.8682 17.3679H29.5712H35.2742L35.3165 20.5644L35.3446 23.775H35.9783H36.612L36.6401 17.396L36.6824 11.0312L43.0613 10.989L49.4261 10.9608V10.2567C49.4261 9.86244 49.4824 9.55265 49.5528 9.55265C49.9894 9.55265 53.0591 13.411 54.0448 15.1993C54.425 15.9034 54.6363 16.4526 54.6363 16.7765C54.6363 17.1707 54.6926 17.2834 54.932 17.3256C55.1432 17.3538 55.3403 17.6354 55.6501 18.3536C56.2416 19.7336 57.0442 22.226 56.9456 22.3809C56.9034 22.4513 56.3683 22.5076 55.7487 22.5076H54.6363V23.1413V23.7609L56.0022 23.8031L57.3681 23.8454L57.5371 24.7607C57.6356 25.2676 57.7624 26.3941 57.8187 27.2531L57.9173 28.8443H53.6646H49.4261V22.4372V16.0301H48.7924H48.1588V26.3096V36.5891H48.7924H49.4261L49.4543 33.3785L49.4965 30.182L53.6928 30.1398L57.875 30.1116V30.9284C57.875 32.8857 57.3258 35.8428 56.5091 38.2789L55.974 39.8983L55.9318 37.6171L55.9036 35.3218H55.2699H54.6363L54.6081 38.4479L54.5659 41.588L44.9623 41.6303L35.3446 41.6584V42.2921V42.9258H45.6382H55.9177L56.5373 41.6162C59.2691 35.7724 59.8746 28.4218 58.1426 21.9444C55.0024 10.1159 44.9482 1.48396 32.7395 0.118054C31.2469 -0.0509241 27.6984 -0.0368426 26.1917 0.132135Z" fill="black"/>
<path d="M2.6614 17.2257C0.999786 20.7742 0 25.3648 0 29.4766C0 42.164 8.18135 53.4855 20.221 57.4706C30.1344 60.7375 40.6814 58.6957 48.7501 51.9366C49.9893 50.9086 52.2423 48.6133 52.355 48.2754C52.3831 48.1768 48.3981 48.1346 41.3433 48.1346H30.2752V42.3612V36.5878L36.6541 36.5596L43.019 36.5173V26.3083V16.0992L42.4275 16.0569L41.822 16.0147L41.7939 22.3936L41.7516 28.7725L38.5551 28.8148L35.3445 28.8429V29.4766V30.1103L38.5551 30.1384L41.7516 30.1807V32.7153V35.25L35.3868 35.2923L29.0079 35.3204V42.3612V49.4019H39.4L49.7781 49.416L48.7924 50.3313C47.6095 51.4437 45.6663 52.9082 44.2018 53.8094C43.3428 54.3445 43.019 54.4712 42.4839 54.4712C41.9206 54.4712 41.8361 54.5135 41.7939 54.781C41.7375 55.1753 40.7941 55.6541 38.6537 56.3722C36.5274 57.0763 36.6119 57.1045 36.6119 55.6682V54.4712H32.8099H29.0079V55.1049V55.7386L32.148 55.7667L35.2741 55.809L35.3164 56.5271L35.3586 57.2594L34.6827 57.4143C32.7254 57.8508 29.0642 57.9775 26.5014 57.6959C24.0512 57.4424 19.179 56.1751 19.3761 55.8653C19.4184 55.7949 20.4322 55.7386 21.6292 55.7386H23.7977V48.6978V41.6571H20.6294H17.461V39.1224V36.5878H20.6294H23.7977V35.9541V35.3204H19.9957H16.1937L16.1656 38.4465L16.1233 41.5867L12.9268 41.6289L9.71623 41.6571V42.2908V42.9244L16.0951 42.9526L22.46 42.9948L22.5022 48.726L22.5304 54.4712H19.3198H16.1092L14.8982 53.7531C14.2364 53.3588 13.0817 52.5702 12.3354 51.9788L10.9695 50.9368L11.0117 50.2046L11.054 49.4723L14.2223 49.4019L17.3906 49.3315L17.4329 48.726L17.4751 48.1346H13.6027H9.71623V48.8386C9.71623 49.2188 9.6599 49.5427 9.58949 49.5427C9.42052 49.5427 7.9138 47.8248 6.8436 46.4026C5.44954 44.5438 4.73138 43.2624 4.64689 42.4457C4.59057 41.8542 4.52016 41.7275 4.25261 41.6571C3.88649 41.5726 3.4218 40.6151 2.67548 38.4043C1.99957 36.3765 1.54896 36.5878 6.6183 36.5878H10.9836V29.547V22.5063H10.3499H9.71623L9.68807 28.8711L9.64582 35.25L5.81566 35.2923C2.18263 35.3204 1.97141 35.3063 1.84468 35.0529C1.57713 34.5741 1.26733 31.5466 1.26733 29.547C1.26733 27.8291 1.54896 24.7452 1.77427 24.013C1.84468 23.8018 1.98549 23.7736 2.57691 23.8018L3.30915 23.844L3.35139 26.9701L3.37956 30.1103H4.01322H4.64689V26.3083V22.5063H3.44997C2.2812 22.5063 2.25304 22.4922 2.25304 22.1683C2.25304 21.7459 3.11201 19.2534 3.63302 18.1692L4.01322 17.3665H10.0683H16.1233L16.1656 20.5771L16.1937 23.7877L16.7992 23.7454L17.3906 23.7032V19.9012V16.0992L10.3077 16.0569L3.22466 16.0288L2.6614 17.2257Z" fill="black"/>
</svg>
